<?xml version="1.0" encoding="UTF-8"?>
<svg id="Layer_1" data-name="Layer 1" xmlns="http://www.w3.org/2000/svg" viewBox="0 0 250.87 250.87">
  <defs>
    <style>
      .cls-1 {
        fill: #3bf4b7;
        stroke-width: 2px;
      }

      .cls-1, .cls-2 {
        stroke: #231f20;
        stroke-miterlimit: 10;
      }

      .cls-2 {
        fill: #39a2f7;
      }

      .cls-3 {
        fill: #231f20;
      }
    </style>
  </defs>
  <circle class="cls-2" cx="125.43" cy="125.43" r="124.93"/>
  <rect class="cls-1" x="57.64" y="34.46" width="141.51" height="27.22"/>
  <path class="cls-3" d="m65.77,83.66c-3.34,10.06-2.96,20.8-2.72,31.26.25,11.15.5,22.3.75,33.45.14,6.32.29,12.65.43,18.97.07,3.21,5.07,3.22,5,0-.25-10.98-.5-21.97-.74-32.95s-.85-21.66-.54-32.46c.16-5.76.83-11.46,2.65-16.94,1.02-3.06-3.81-4.37-4.82-1.33h0Z"/>
  <path class="cls-3" d="m29.86,124.41c20.5,2.71,41.31,2.88,61.85.48,5.84-.68,11.65-1.56,17.43-2.63,1.33-.25,2.08-1.85,1.75-3.08-.38-1.39-1.74-1.99-3.08-1.75-19.95,3.7-40.34,4.92-60.59,3.66-5.8-.36-11.59-.93-17.35-1.69-1.34-.18-2.5,1.28-2.5,2.5,0,1.5,1.16,2.32,2.5,2.5h0Z"/>
  <path class="cls-3" d="m144.17,123.22h77.9c3.22,0,3.22-5,0-5h-77.9c-3.22,0-3.22,5,0,5h0Z"/>
  <path class="cls-3" d="m102.66,192.76h74.12c3.22,0,3.22-5,0-5h-74.12c-3.22,0-3.22,5,0,5h0Z"/>
  <path class="cls-3" d="m98.88,206.23h81.13c3.22,0,3.22-5,0-5h-81.13c-3.22,0-3.22,5,0,5h0Z"/>
</svg>